<?xml version="1.0" encoding="utf-8"?>
<!-- Uploaded to: SVG Repo, www.svgrepo.com, Generator: SVG Repo Mixer Tools -->
<svg fill="#000000" width="800px" height="800px" viewBox="0 0 32 32" version="1.1" xmlns="http://www.w3.org/2000/svg">
<title>helmet</title>
<path d="M28.268 16.128c1.527-1.641 2.416-3.607 2.416-5.721-0-2.771-1.586-5.278-4.072-7.142 0.881 1.189 1.441 2.524 1.441 3.96 0 1.48-0.527 2.872-1.456 4.085l-0.599-1.726-2.873 0.899c-1.269-1.714-2.943-2.739-5.091-3.112-0.542-2.757-1.316-5.938-1.982-5.938s-1.44 3.181-1.982 5.938c-2.148 0.373-3.822 1.398-5.090 3.112l-2.872-0.899-0.598 1.726c-0.929-1.214-1.456-2.606-1.456-4.086 0-1.436 0.56-2.771 1.441-3.96-2.487 1.865-4.073 4.372-4.073 7.143 0 2.114 0.89 4.080 2.417 5.721l-0.625 1.803 2.877 1.328c-0.308 2.418-0.449 5.214-0.449 8.405 3.221 1.87 6.791 2.8 10.413 2.777 3.622 0.023 7.191-0.907 10.413-2.777 0-3.191-0.141-5.986-0.449-8.404l2.878-1.329-0.626-1.804zM17.44 21.359c-0.307 2.517-0.722 6.365-0.722 8.75h-1.331c0-2.388-0.416-6.241-0.723-8.758-4.542-0.291-6.496-1.882-6.496-1.882s0.144-1.054 0.285-1.881c0-0.001 0-0.003 0.001-0.004 0.011-0.064 0.022-0.126 0.033-0.187 0.001-0.005 0.002-0.009 0.002-0.014 0.004-0.025 0.009-0.049 0.013-0.073 0.001-0.006 0.002-0.011 0.003-0.017 0.010-0.055 0.020-0.109 0.030-0.159 0.001-0.006 0.002-0.013 0.004-0.019 0.004-0.019 0.007-0.038 0.011-0.056 0.001-0.006 0.003-0.013 0.004-0.019 0.005-0.023 0.010-0.046 0.014-0.068 2.401 0.809 4.929 1.216 7.486 1.201 2.556 0.014 5.084-0.393 7.485-1.201 0.005 0.021 0.009 0.044 0.014 0.066 0.002 0.008 0.003 0.016 0.005 0.024 0.003 0.016 0.006 0.032 0.010 0.048 0.002 0.009 0.003 0.018 0.005 0.027 0.004 0.021 0.008 0.042 0.012 0.064 0.002 0.009 0.003 0.018 0.005 0.026 0.004 0.019 0.007 0.039 0.011 0.059 0.002 0.012 0.004 0.023 0.006 0.035 0.003 0.015 0.006 0.031 0.008 0.046 0.002 0.012 0.004 0.025 0.007 0.037 0.003 0.019 0.007 0.038 0.010 0.058s0.007 0.037 0.010 0.056c0.003 0.016 0.006 0.032 0.008 0.049 0.003 0.015 0.005 0.030 0.008 0.045 0.002 0.014 0.005 0.028 0.007 0.042 0.003 0.016 0.005 0.032 0.008 0.049 0.002 0.014 0.005 0.029 0.007 0.043 0.004 0.027 0.009 0.053 0.013 0.080 0.002 0.015 0.005 0.030 0.007 0.044 0.003 0.017 0.005 0.033 0.008 0.050 0.002 0.014 0.005 0.028 0.007 0.042 0.003 0.016 0.005 0.032 0.008 0.047 0.004 0.023 0.007 0.045 0.011 0.068 0.003 0.017 0.006 0.035 0.008 0.052s0.006 0.037 0.009 0.055c0.002 0.014 0.004 0.028 0.006 0.042 0.003 0.017 0.005 0.035 0.008 0.052 0.002 0.013 0.004 0.027 0.006 0.040 0.004 0.028 0.009 0.056 0.013 0.084 0.001 0.009 0.003 0.017 0.004 0.026 0.003 0.023 0.007 0.046 0.010 0.068 0.001 0.008 0.003 0.017 0.004 0.025 0.004 0.026 0.008 0.051 0.011 0.076 0.001 0.004 0.001 0.008 0.002 0.012 0.072 0.481 0.123 0.859 0.123 0.859s-1.886 1.62-6.498 1.889z"></path>
</svg>